<mxfile host="app.diagrams.net" modified="2023-10-12T06:17:38.082Z" agent="Mozilla/5.0 (Windows NT 10.0; Win64; x64) AppleWebKit/537.36 (KHTML, like Gecko) Chrome/117.0.0.0 Safari/537.36" etag="vWRjV3mOlJisWqwk2Kb5" version="22.0.4" type="google">
  <diagram name="Page-1" id="9tDmk3IULlB9sNWk9-nP">
    <mxGraphModel grid="0" page="1" gridSize="10" guides="1" tooltips="1" connect="1" arrows="1" fold="1" pageScale="1" pageWidth="827" pageHeight="1169" math="0" shadow="0">
      <root>
        <mxCell id="0" />
        <mxCell id="1" parent="0" />
        <mxCell id="3XHGtYrTaPSejz15gJ83-11" value="ATM" style="shape=umlLifeline;perimeter=lifelinePerimeter;whiteSpace=wrap;html=1;container=1;dropTarget=0;collapsible=0;recursiveResize=0;outlineConnect=0;portConstraint=eastwest;newEdgeStyle={&quot;curved&quot;:0,&quot;rounded&quot;:0};fillColor=#CCE5FF;" vertex="1" parent="1">
          <mxGeometry x="251" y="142" width="100" height="760" as="geometry" />
        </mxCell>
        <mxCell id="3XHGtYrTaPSejz15gJ83-33" value="" style="html=1;points=[[0,0,0,0,5],[0,1,0,0,-5],[1,0,0,0,5],[1,1,0,0,-5]];perimeter=orthogonalPerimeter;outlineConnect=0;targetShapes=umlLifeline;portConstraint=eastwest;newEdgeStyle={&quot;curved&quot;:0,&quot;rounded&quot;:0};fillColor=#CCE5FF;" vertex="1" parent="3XHGtYrTaPSejz15gJ83-11">
          <mxGeometry x="40" y="60" width="20" height="670" as="geometry" />
        </mxCell>
        <mxCell id="3XHGtYrTaPSejz15gJ83-15" value="" style="shape=umlLifeline;perimeter=lifelinePerimeter;whiteSpace=wrap;html=1;container=1;dropTarget=0;collapsible=0;recursiveResize=0;outlineConnect=0;portConstraint=eastwest;newEdgeStyle={&quot;curved&quot;:0,&quot;rounded&quot;:0};participant=umlActor;" vertex="1" parent="1">
          <mxGeometry x="121" y="142" width="20" height="760" as="geometry" />
        </mxCell>
        <mxCell id="3XHGtYrTaPSejz15gJ83-16" value="Bank Server" style="shape=umlLifeline;perimeter=lifelinePerimeter;whiteSpace=wrap;html=1;container=1;dropTarget=0;collapsible=0;recursiveResize=0;outlineConnect=0;portConstraint=eastwest;newEdgeStyle={&quot;curved&quot;:0,&quot;rounded&quot;:0};fillColor=#CCE5FF;" vertex="1" parent="1">
          <mxGeometry x="461" y="142" width="100" height="760" as="geometry" />
        </mxCell>
        <mxCell id="3XHGtYrTaPSejz15gJ83-34" value="" style="html=1;points=[[0,0,0,0,5],[0,1,0,0,-5],[1,0,0,0,5],[1,1,0,0,-5]];perimeter=orthogonalPerimeter;outlineConnect=0;targetShapes=umlLifeline;portConstraint=eastwest;newEdgeStyle={&quot;curved&quot;:0,&quot;rounded&quot;:0};fillColor=#CCE5FF;" vertex="1" parent="3XHGtYrTaPSejz15gJ83-16">
          <mxGeometry x="40" y="78" width="20" height="622" as="geometry" />
        </mxCell>
        <mxCell id="3XHGtYrTaPSejz15gJ83-17" value="Bank Account" style="shape=umlLifeline;perimeter=lifelinePerimeter;whiteSpace=wrap;html=1;container=1;dropTarget=0;collapsible=0;recursiveResize=0;outlineConnect=0;portConstraint=eastwest;newEdgeStyle={&quot;curved&quot;:0,&quot;rounded&quot;:0};fillColor=#CCE5FF;" vertex="1" parent="1">
          <mxGeometry x="671" y="142" width="100" height="760" as="geometry" />
        </mxCell>
        <mxCell id="3XHGtYrTaPSejz15gJ83-35" value="" style="html=1;points=[[0,0,0,0,5],[0,1,0,0,-5],[1,0,0,0,5],[1,1,0,0,-5]];perimeter=orthogonalPerimeter;outlineConnect=0;targetShapes=umlLifeline;portConstraint=eastwest;newEdgeStyle={&quot;curved&quot;:0,&quot;rounded&quot;:0};fillColor=#CCE5FF;" vertex="1" parent="3XHGtYrTaPSejz15gJ83-17">
          <mxGeometry x="40" y="450" width="20" height="250" as="geometry" />
        </mxCell>
        <mxCell id="3XHGtYrTaPSejz15gJ83-18" value="Insert Card" style="html=1;verticalAlign=bottom;endArrow=block;curved=0;rounded=0;" edge="1" parent="1" target="3XHGtYrTaPSejz15gJ83-33">
          <mxGeometry width="80" relative="1" as="geometry">
            <mxPoint x="131" y="222" as="sourcePoint" />
            <mxPoint x="271" y="222" as="targetPoint" />
          </mxGeometry>
        </mxCell>
        <mxCell id="3XHGtYrTaPSejz15gJ83-19" value="Verify Card" style="html=1;verticalAlign=bottom;endArrow=block;curved=0;rounded=0;" edge="1" parent="1">
          <mxGeometry width="80" relative="1" as="geometry">
            <mxPoint x="311" y="242" as="sourcePoint" />
            <mxPoint x="500.5" y="242" as="targetPoint" />
          </mxGeometry>
        </mxCell>
        <mxCell id="3XHGtYrTaPSejz15gJ83-20" value="Card OK" style="html=1;verticalAlign=bottom;endArrow=open;dashed=1;endSize=8;curved=0;rounded=0;" edge="1" parent="1" source="3XHGtYrTaPSejz15gJ83-34">
          <mxGeometry relative="1" as="geometry">
            <mxPoint x="481" y="272" as="sourcePoint" />
            <mxPoint x="311" y="272" as="targetPoint" />
          </mxGeometry>
        </mxCell>
        <mxCell id="3XHGtYrTaPSejz15gJ83-21" value="Request PIN" style="html=1;verticalAlign=bottom;endArrow=block;curved=0;rounded=0;" edge="1" parent="1" source="3XHGtYrTaPSejz15gJ83-33">
          <mxGeometry width="80" relative="1" as="geometry">
            <mxPoint x="271" y="292" as="sourcePoint" />
            <mxPoint x="130.5" y="292" as="targetPoint" />
          </mxGeometry>
        </mxCell>
        <mxCell id="3XHGtYrTaPSejz15gJ83-22" value="alt" style="shape=umlFrame;whiteSpace=wrap;html=1;pointerEvents=0;width=50;height=20;" vertex="1" parent="1">
          <mxGeometry x="61" y="252" width="480" height="120" as="geometry" />
        </mxCell>
        <mxCell id="3XHGtYrTaPSejz15gJ83-23" value="Card Invalid" style="html=1;verticalAlign=bottom;endArrow=open;dashed=1;endSize=8;curved=0;rounded=0;" edge="1" parent="1" source="3XHGtYrTaPSejz15gJ83-34">
          <mxGeometry relative="1" as="geometry">
            <mxPoint x="491" y="332" as="sourcePoint" />
            <mxPoint x="311" y="332" as="targetPoint" />
          </mxGeometry>
        </mxCell>
        <mxCell id="3XHGtYrTaPSejz15gJ83-24" value="Eject Card" style="html=1;verticalAlign=bottom;endArrow=block;curved=0;rounded=0;" edge="1" parent="1" source="3XHGtYrTaPSejz15gJ83-33">
          <mxGeometry width="80" relative="1" as="geometry">
            <mxPoint x="271" y="352" as="sourcePoint" />
            <mxPoint x="130.5" y="352" as="targetPoint" />
          </mxGeometry>
        </mxCell>
        <mxCell id="3XHGtYrTaPSejz15gJ83-25" value="PIN Entered" style="html=1;verticalAlign=bottom;endArrow=open;dashed=1;endSize=8;curved=0;rounded=0;" edge="1" parent="1" target="3XHGtYrTaPSejz15gJ83-33">
          <mxGeometry relative="1" as="geometry">
            <mxPoint x="130.5" y="401.5" as="sourcePoint" />
            <mxPoint x="241" y="402" as="targetPoint" />
          </mxGeometry>
        </mxCell>
        <mxCell id="3XHGtYrTaPSejz15gJ83-27" value="Verify PIN" style="html=1;verticalAlign=bottom;endArrow=block;curved=0;rounded=0;" edge="1" parent="1">
          <mxGeometry width="80" relative="1" as="geometry">
            <mxPoint x="311" y="422" as="sourcePoint" />
            <mxPoint x="501" y="422" as="targetPoint" />
          </mxGeometry>
        </mxCell>
        <mxCell id="3XHGtYrTaPSejz15gJ83-28" value="PIN OK" style="html=1;verticalAlign=bottom;endArrow=open;dashed=1;endSize=8;curved=0;rounded=0;" edge="1" parent="1" source="3XHGtYrTaPSejz15gJ83-34">
          <mxGeometry relative="1" as="geometry">
            <mxPoint x="481" y="452" as="sourcePoint" />
            <mxPoint x="311" y="452" as="targetPoint" />
          </mxGeometry>
        </mxCell>
        <mxCell id="3XHGtYrTaPSejz15gJ83-29" value="Request Amount" style="html=1;verticalAlign=bottom;endArrow=block;curved=0;rounded=0;" edge="1" parent="1" source="3XHGtYrTaPSejz15gJ83-33">
          <mxGeometry width="80" relative="1" as="geometry">
            <mxPoint x="241" y="472" as="sourcePoint" />
            <mxPoint x="130.5" y="472" as="targetPoint" />
          </mxGeometry>
        </mxCell>
        <mxCell id="3XHGtYrTaPSejz15gJ83-30" value="alt" style="shape=umlFrame;whiteSpace=wrap;html=1;pointerEvents=0;width=50;height=20;" vertex="1" parent="1">
          <mxGeometry x="61" y="432" width="480" height="120" as="geometry" />
        </mxCell>
        <mxCell id="3XHGtYrTaPSejz15gJ83-31" value="PIN Invalid" style="html=1;verticalAlign=bottom;endArrow=open;dashed=1;endSize=8;curved=0;rounded=0;" edge="1" parent="1">
          <mxGeometry relative="1" as="geometry">
            <mxPoint x="501" y="512" as="sourcePoint" />
            <mxPoint x="311" y="512" as="targetPoint" />
          </mxGeometry>
        </mxCell>
        <mxCell id="3XHGtYrTaPSejz15gJ83-32" value="Eject Card" style="html=1;verticalAlign=bottom;endArrow=block;curved=0;rounded=0;" edge="1" parent="1" source="3XHGtYrTaPSejz15gJ83-33">
          <mxGeometry width="80" relative="1" as="geometry">
            <mxPoint x="271" y="532" as="sourcePoint" />
            <mxPoint x="130.5" y="532" as="targetPoint" />
          </mxGeometry>
        </mxCell>
        <mxCell id="3XHGtYrTaPSejz15gJ83-37" value="Amount Entered" style="html=1;verticalAlign=bottom;endArrow=open;dashed=1;endSize=8;curved=0;rounded=0;" edge="1" parent="1">
          <mxGeometry relative="1" as="geometry">
            <mxPoint x="131" y="582" as="sourcePoint" />
            <mxPoint x="291.5" y="582" as="targetPoint" />
          </mxGeometry>
        </mxCell>
        <mxCell id="3XHGtYrTaPSejz15gJ83-38" value="Start Transaction" style="html=1;verticalAlign=bottom;endArrow=block;curved=0;rounded=0;" edge="1" parent="1">
          <mxGeometry width="80" relative="1" as="geometry">
            <mxPoint x="311" y="602" as="sourcePoint" />
            <mxPoint x="501" y="602" as="targetPoint" />
          </mxGeometry>
        </mxCell>
        <mxCell id="3XHGtYrTaPSejz15gJ83-39" value="Sufficient Funds" style="html=1;verticalAlign=bottom;endArrow=block;curved=0;rounded=0;" edge="1" parent="1" target="3XHGtYrTaPSejz15gJ83-35">
          <mxGeometry width="80" relative="1" as="geometry">
            <mxPoint x="521" y="622" as="sourcePoint" />
            <mxPoint x="601" y="622" as="targetPoint" />
          </mxGeometry>
        </mxCell>
        <mxCell id="3XHGtYrTaPSejz15gJ83-40" value="Funds OK" style="html=1;verticalAlign=bottom;endArrow=open;dashed=1;endSize=8;curved=0;rounded=0;" edge="1" parent="1" target="3XHGtYrTaPSejz15gJ83-34">
          <mxGeometry relative="1" as="geometry">
            <mxPoint x="711" y="652" as="sourcePoint" />
            <mxPoint x="631" y="652" as="targetPoint" />
          </mxGeometry>
        </mxCell>
        <mxCell id="3XHGtYrTaPSejz15gJ83-41" value="Withdraw Amount" style="html=1;verticalAlign=bottom;endArrow=block;curved=0;rounded=0;" edge="1" parent="1" target="3XHGtYrTaPSejz15gJ83-35">
          <mxGeometry width="80" relative="1" as="geometry">
            <mxPoint x="521" y="687" as="sourcePoint" />
            <mxPoint x="601" y="687" as="targetPoint" />
          </mxGeometry>
        </mxCell>
        <mxCell id="3XHGtYrTaPSejz15gJ83-42" value="Withdraw Successful" style="html=1;verticalAlign=bottom;endArrow=open;dashed=1;endSize=8;curved=0;rounded=0;" edge="1" parent="1">
          <mxGeometry relative="1" as="geometry">
            <mxPoint x="711" y="722" as="sourcePoint" />
            <mxPoint x="521" y="722" as="targetPoint" />
          </mxGeometry>
        </mxCell>
        <mxCell id="3XHGtYrTaPSejz15gJ83-44" value="" style="endArrow=none;dashed=1;html=1;rounded=0;exitX=-0.004;exitY=0.535;exitDx=0;exitDy=0;exitPerimeter=0;entryX=1.001;entryY=0.488;entryDx=0;entryDy=0;entryPerimeter=0;" edge="1" parent="1" target="3XHGtYrTaPSejz15gJ83-22">
          <mxGeometry width="50" height="50" relative="1" as="geometry">
            <mxPoint x="60.99999999999993" y="310.00000000000006" as="sourcePoint" />
            <mxPoint x="502.92" y="310.00000000000006" as="targetPoint" />
          </mxGeometry>
        </mxCell>
        <mxCell id="3XHGtYrTaPSejz15gJ83-45" value="" style="endArrow=none;dashed=1;html=1;rounded=0;exitX=-0.004;exitY=0.535;exitDx=0;exitDy=0;exitPerimeter=0;entryX=1.001;entryY=0.508;entryDx=0;entryDy=0;entryPerimeter=0;" edge="1" parent="1" target="3XHGtYrTaPSejz15gJ83-30">
          <mxGeometry width="50" height="50" relative="1" as="geometry">
            <mxPoint x="60.99999999999993" y="492.83000000000004" as="sourcePoint" />
            <mxPoint x="531.48" y="491.17" as="targetPoint" />
          </mxGeometry>
        </mxCell>
        <mxCell id="3XHGtYrTaPSejz15gJ83-46" value="[if card is valid]" style="text;html=1;strokeColor=none;fillColor=none;align=center;verticalAlign=middle;whiteSpace=wrap;rounded=0;" vertex="1" parent="1">
          <mxGeometry x="61" y="282" width="60" height="20" as="geometry" />
        </mxCell>
        <mxCell id="3XHGtYrTaPSejz15gJ83-49" value="[if PIN is valid]" style="text;html=1;strokeColor=none;fillColor=none;align=center;verticalAlign=middle;whiteSpace=wrap;rounded=0;" vertex="1" parent="1">
          <mxGeometry x="61" y="462" width="60" height="20" as="geometry" />
        </mxCell>
        <mxCell id="3XHGtYrTaPSejz15gJ83-51" value="[else]" style="text;html=1;strokeColor=none;fillColor=none;align=center;verticalAlign=middle;whiteSpace=wrap;rounded=0;" vertex="1" parent="1">
          <mxGeometry x="61" y="512" width="60" height="30" as="geometry" />
        </mxCell>
        <mxCell id="3XHGtYrTaPSejz15gJ83-52" value="[else]" style="text;html=1;strokeColor=none;fillColor=none;align=center;verticalAlign=middle;whiteSpace=wrap;rounded=0;" vertex="1" parent="1">
          <mxGeometry x="61" y="332" width="60" height="30" as="geometry" />
        </mxCell>
        <mxCell id="3XHGtYrTaPSejz15gJ83-53" value="alt" style="shape=umlFrame;whiteSpace=wrap;html=1;pointerEvents=0;width=50;height=20;" vertex="1" parent="1">
          <mxGeometry x="61" y="632" width="690" height="190" as="geometry" />
        </mxCell>
        <mxCell id="3XHGtYrTaPSejz15gJ83-54" value="" style="endArrow=none;dashed=1;html=1;rounded=0;entryX=1.001;entryY=0.508;entryDx=0;entryDy=0;entryPerimeter=0;" edge="1" parent="1">
          <mxGeometry width="50" height="50" relative="1" as="geometry">
            <mxPoint x="61" y="765.41" as="sourcePoint" />
            <mxPoint x="748.07" y="765" as="targetPoint" />
          </mxGeometry>
        </mxCell>
        <mxCell id="3XHGtYrTaPSejz15gJ83-55" value="[if funds are sufficient]" style="text;html=1;strokeColor=none;fillColor=none;align=center;verticalAlign=middle;whiteSpace=wrap;rounded=0;" vertex="1" parent="1">
          <mxGeometry x="56" y="677" width="80" height="20" as="geometry" />
        </mxCell>
        <mxCell id="3XHGtYrTaPSejz15gJ83-56" value="[else]" style="text;html=1;strokeColor=none;fillColor=none;align=center;verticalAlign=middle;whiteSpace=wrap;rounded=0;" vertex="1" parent="1">
          <mxGeometry x="61" y="782" width="60" height="30" as="geometry" />
        </mxCell>
        <mxCell id="3XHGtYrTaPSejz15gJ83-57" value="Transaction Successful" style="html=1;verticalAlign=bottom;endArrow=open;dashed=1;endSize=8;curved=0;rounded=0;" edge="1" parent="1">
          <mxGeometry relative="1" as="geometry">
            <mxPoint x="501" y="732" as="sourcePoint" />
            <mxPoint x="311" y="732" as="targetPoint" />
          </mxGeometry>
        </mxCell>
        <mxCell id="3XHGtYrTaPSejz15gJ83-58" value="Dispense Cash" style="html=1;verticalAlign=bottom;endArrow=block;curved=0;rounded=0;entryX=0.54;entryY=0.607;entryDx=0;entryDy=0;entryPerimeter=0;" edge="1" parent="1">
          <mxGeometry width="80" relative="1" as="geometry">
            <mxPoint x="290.2" y="751.9999999999999" as="sourcePoint" />
            <mxPoint x="130.99999999999994" y="751.9999999999999" as="targetPoint" />
          </mxGeometry>
        </mxCell>
        <mxCell id="3XHGtYrTaPSejz15gJ83-60" value="Insufficient Funds" style="html=1;verticalAlign=bottom;endArrow=open;dashed=1;endSize=8;curved=0;rounded=0;" edge="1" parent="1">
          <mxGeometry relative="1" as="geometry">
            <mxPoint x="711" y="791.5" as="sourcePoint" />
            <mxPoint x="521" y="791.5" as="targetPoint" />
          </mxGeometry>
        </mxCell>
        <mxCell id="3XHGtYrTaPSejz15gJ83-61" value="Transaction Unsuccessful" style="html=1;verticalAlign=bottom;endArrow=open;dashed=1;endSize=8;curved=0;rounded=0;" edge="1" parent="1">
          <mxGeometry relative="1" as="geometry">
            <mxPoint x="501" y="801.5" as="sourcePoint" />
            <mxPoint x="311" y="801.5" as="targetPoint" />
          </mxGeometry>
        </mxCell>
        <mxCell id="3XHGtYrTaPSejz15gJ83-62" value="Eject Card" style="html=1;verticalAlign=bottom;endArrow=block;curved=0;rounded=0;" edge="1" parent="1" source="3XHGtYrTaPSejz15gJ83-33">
          <mxGeometry width="80" relative="1" as="geometry">
            <mxPoint x="280" y="852" as="sourcePoint" />
            <mxPoint x="130" y="852" as="targetPoint" />
          </mxGeometry>
        </mxCell>
      </root>
    </mxGraphModel>
  </diagram>
</mxfile>
